<svg width="17" height="17" viewBox="0 0 17 17" fill="none" xmlns="http://www.w3.org/2000/svg">
<path d="M1.17507 1.17507C1.2823 1.06757 1.40968 0.982279 1.54992 0.924085C1.69017 0.865891 1.84051 0.835938 1.99235 0.835938C2.14418 0.835938 2.29453 0.865891 2.43477 0.924085C2.57501 0.982279 2.7024 1.06757 2.80963 1.17507L8.91843 7.28618L15.0272 1.17507C15.1346 1.06774 15.262 0.982607 15.4022 0.924522C15.5424 0.866438 15.6927 0.836542 15.8445 0.836542C15.9963 0.836542 16.1466 0.866438 16.2868 0.924522C16.427 0.982607 16.5545 1.06774 16.6618 1.17507C16.7691 1.2824 16.8543 1.40981 16.9123 1.55004C16.9704 1.69027 17.0003 1.84057 17.0003 1.99235C17.0003 2.14413 16.9704 2.29443 16.9123 2.43466C16.8543 2.57488 16.7691 2.7023 16.6618 2.80963L10.5507 8.91843L16.6618 15.0272C16.7691 15.1346 16.8543 15.262 16.9123 15.4022C16.9704 15.5424 17.0003 15.6927 17.0003 15.8445C17.0003 15.9963 16.9704 16.1466 16.9123 16.2868C16.8543 16.427 16.7691 16.5545 16.6618 16.6618C16.5545 16.7691 16.427 16.8543 16.2868 16.9123C16.1466 16.9704 15.9963 17.0003 15.8445 17.0003C15.6927 17.0003 15.5424 16.9704 15.4022 16.9123C15.262 16.8543 15.1346 16.7691 15.0272 16.6618L8.91843 10.5507L2.80963 16.6618C2.7023 16.7691 2.57488 16.8543 2.43466 16.9123C2.29443 16.9704 2.14413 17.0003 1.99235 17.0003C1.84057 17.0003 1.69027 16.9704 1.55004 16.9123C1.40981 16.8543 1.2824 16.7691 1.17507 16.6618C1.06774 16.5545 0.982607 16.427 0.924522 16.2868C0.866438 16.1466 0.836542 15.9963 0.836542 15.8445C0.836542 15.6927 0.866438 15.5424 0.924522 15.4022C0.982607 15.262 1.06774 15.1346 1.17507 15.0272L7.28618 8.91843L1.17507 2.80963C1.06757 2.7024 0.982279 2.57501 0.924085 2.43477C0.865891 2.29453 0.835938 2.14418 0.835938 1.99235C0.835938 1.84051 0.865891 1.69017 0.924085 1.54992C0.982279 1.40968 1.06757 1.2823 1.17507 1.17507Z" fill="#347AE6"/>
</svg>
