<svg width="14" height="14" viewBox="0 0 14 14" fill="none" xmlns="http://www.w3.org/2000/svg">
<path d="M1.66699 6.97443V2.95443C1.66699 2.60081 1.80747 2.26167 2.05752 2.01162C2.30756 1.76157 2.6467 1.62109 3.00033 1.62109H3.00699L11.007 1.65976C11.3595 1.66152 11.6969 1.80278 11.9455 2.05263C12.1941 2.30249 12.3337 2.64062 12.3337 2.99309V10.9931C12.3337 11.3467 12.1932 11.6859 11.9431 11.9359C11.6931 12.186 11.3539 12.3264 11.0003 12.3264H10.9937L2.99366 12.2884C2.64119 12.2867 2.30377 12.1454 2.05516 11.8956C1.80655 11.6457 1.66699 11.3076 1.66699 10.9551V9.66643" stroke="#1FC17D" stroke-width="0.8" stroke-linecap="round" stroke-linejoin="round"/>
<path d="M1.66699 4.33203H12.3337" stroke="#1FC17D" stroke-width="0.8" stroke-linecap="round" stroke-linejoin="round"/>
<path d="M5.66699 10.3314L7.66699 8.33136L5.66699 6.33203" stroke="#1FC17D" stroke-width="0.8" stroke-linecap="round" stroke-linejoin="round"/>
<path d="M7.66667 8.33594H1" stroke="#1FC17D" stroke-width="0.8" stroke-linecap="round" stroke-linejoin="round"/>
</svg>
